# xmcd
#
# Track frame offsets: 
#        150
#        18452
#        37420
#        56485
#        75110
#        97277
#        116895
#        133820
#        151612
#        179935
#        196752
#        213577
#        233617
#        257690
#        275005
#        297730
#
# Disc length: 4260 seconds
#
# Revision: 0
# Processed by: cddbd v1.5PL3 Copyright (c) Steve Scherf et al.
# Submitted via: ExactAudioCopy v0.90b4
#
DISCID=f410a210
DTITLE=Various Artist - Clubtracks Vol 1 1997
DYEAR=1997
DGENRE=R&B
TTITLE0=R. Kelly, Changing Faces and Jay Z - All Of My Days
TTITLE1=Dru Hill - Nothing To Prove
TTITLE2=Renaizzance - If I Were A Dying Man
TTITLE3=Montell Jordan - Falling
TTITLE4=Code 3 - Humpin Bumpin
TTITLE5=Deborah Cox - It Could've Been You
TTITLE6=Tasha - Just The Way You Like It
TTITLE7=Jason Weaver - You Are The One
TTITLE8=Ty Luve - Ghetto Thang
TTITLE9=G Man and Chubb Rock - Treat Me Right
TTITLE10=Taral Hicks - Ooh, Ooh Baby
TTITLE11=Babyface - All Day Thinkin
TTITLE12=Alfonzo Hunter - Everything
TTITLE13=Soul For Real
TTITLE14=Ginuwine - Lonely daze
TTITLE15=Funkmaster Flex - C'mon Baby
EXTD=
EXTT0=
EXTT1=
EXTT2=
EXTT3=
EXTT4=
EXTT5=
EXTT6=
EXTT7=
EXTT8=
EXTT9=
EXTT10=
EXTT11=
EXTT12=
EXTT13=
EXTT14=
EXTT15=
PLAYORDER=
